<svg xmlns="http://www.w3.org/2000/svg" xmlns:xlink="http://www.w3.org/1999/xlink" version="1.1" width="1000" height="1000" viewBox="0 0 1000 1000" xml:space="preserve">
<desc>Created with Fabric.js 3.5.0</desc>
<defs>
</defs>
<rect x="0" y="0" width="100%" height="100%" fill="#ffffff"/>
<g transform="matrix(-1.1454 0 0 1.1454 500.0091 500.0065)" id="694736">
<g style="" vector-effect="non-scaling-stroke">
		<g transform="matrix(1 0 0 1 -220.2611 213.6479)">
<path style="stroke: none; stroke-width: 1; stroke-dasharray: none; stroke-linecap: butt; stroke-dashoffset: 0; stroke-linejoin: miter; stroke-miterlimit: 4; is-custom-font: none; font-file-url: none; fill: rgb(230,230,230); fill-rule: nonzero; opacity: 1;" transform=" translate(-379.7389, -663.6479)" d="M 361.496 677.27 c 14.41964 19.311 44.352 21.34353 44.352 21.34353 s 6.55351 -29.27679 -7.86614 -48.58779 s -44.352 -21.34353 -44.352 -21.34353 S 347.07631 657.959 361.496 677.27 Z" stroke-linecap="round"/>
</g>
		<g transform="matrix(1 0 0 1 -177.0853 225.5407)">
<path style="stroke: none; stroke-width: 1; stroke-dasharray: none; stroke-linecap: butt; stroke-dashoffset: 0; stroke-linejoin: miter; stroke-miterlimit: 4; is-custom-font: none; font-file-url: none; fill: rgb(230,230,230); fill-rule: nonzero; opacity: 1;" transform=" translate(-422.9147, -675.5407)" d="M 434.95268 684.52954 c -9.5151 12.74275 -29.26658 14.08395 -29.26658 14.08395 s -4.32447 -19.31888 5.19062 -32.06163 s 29.26658 -14.084 29.26658 -14.084 S 444.46777 671.78678 434.95268 684.52954 Z" stroke-linecap="round"/>
</g>
		<g transform="matrix(1 0 0 1 64.3195 248.8039)">
<rect style="stroke: none; stroke-width: 1; stroke-dasharray: none; stroke-linecap: butt; stroke-dashoffset: 0; stroke-linejoin: miter; stroke-miterlimit: 4; is-custom-font: none; font-file-url: none; fill: rgb(63,61,86); fill-rule: nonzero; opacity: 1;" x="-332" y="-1.12035" rx="0" ry="0" width="664" height="2.2407"/>
</g>
		<g transform="matrix(1 0 0 1 370.6901 -86.2754)">
<path style="stroke: none; stroke-width: 1; stroke-dasharray: none; stroke-linecap: butt; stroke-dashoffset: 0; stroke-linejoin: miter; stroke-miterlimit: 4; is-custom-font: none; font-file-url: none; fill: rgb(87,90,137); fill-rule: nonzero; opacity: 1;" transform=" translate(-970.6901, -363.7246)" d="M 968.14834 286.59706 l 5.78457 2.89228 s 31.33306 78.57367 20.728 97.37351 s -43.86628 53.98927 -43.86628 53.98927 L 944.528 423.01638 l 25.62922 -55.56407 Z" stroke-linecap="round"/>
</g>
		<g transform="matrix(1 0 0 1 370.6901 -86.2754)">
<path style="stroke: none; stroke-width: 1; stroke-dasharray: none; stroke-linecap: butt; stroke-dashoffset: 0; stroke-linejoin: miter; stroke-miterlimit: 4; is-custom-font: none; font-file-url: none; fill: rgb(0,0,0); fill-rule: nonzero; opacity: 0.1;" transform=" translate(-970.6901, -363.7246)" d="M 968.14834 286.59706 l 5.78457 2.89228 s 31.33306 78.57367 20.728 97.37351 s -43.86628 53.98927 -43.86628 53.98927 L 944.528 423.01638 l 25.62922 -55.56407 Z" stroke-linecap="round"/>
</g>
		<g transform="matrix(1 0 0 1 352.5695 240.3115)">
<path style="stroke: none; stroke-width: 1; stroke-dasharray: none; stroke-linecap: butt; stroke-dashoffset: 0; stroke-linejoin: miter; stroke-miterlimit: 4; is-custom-font: none; font-file-url: none; fill: rgb(87,90,137); fill-rule: nonzero; opacity: 1;" transform=" translate(-952.5695, -690.3115)" d="M 961.88173 679.46542 s 8.1948 18.79983 3.85638 20.246 s -9.64094 1.44614 -14.94346 1.44614 s -11.56913 -1.92818 -12.53323 -3.85637 s 3.85638 -14.46141 3.85638 -14.46141 Z" stroke-linecap="round"/>
</g>
		<g transform="matrix(1 0 0 1 240.8807 248.4114)">
<path style="stroke: none; stroke-width: 1; stroke-dasharray: none; stroke-linecap: butt; stroke-dashoffset: 0; stroke-linejoin: miter; stroke-miterlimit: 4; is-custom-font: none; font-file-url: none; fill: rgb(87,90,137); fill-rule: nonzero; opacity: 1;" transform=" translate(-840.8807, -698.4114)" d="M 851.493 689.10636 s 5.30252 16.87165 2.89228 17.83574 s -10.123 5.30252 -14.46141 3.85638 s -11.08708 -4.82047 -12.53322 -6.26662 s 0 -9.15889 0 -9.15889 l 6.74866 -9.64094 Z" stroke-linecap="round"/>
</g>
		<g transform="matrix(1 0 0 1 298.1989 112.6405)">
<path style="stroke: none; stroke-width: 1; stroke-dasharray: none; stroke-linecap: butt; stroke-dashoffset: 0; stroke-linejoin: miter; stroke-miterlimit: 4; is-custom-font: none; font-file-url: none; fill: rgb(47,46,65); fill-rule: nonzero; opacity: 1;" transform=" translate(-898.1989, -562.6405)" d="M 946.45623 438.44188 l 6.90994 2.41024 s 1.7669 16.3896 -0.16129 22.17416 s -6.26661 47.72266 -3.85637 56.39951 s 0.96409 22.65621 0.96409 22.65621 s 14.46141 47.24061 11.56913 57.3636 s -2.41023 24.5844 0.48205 31.81511 s 5.30252 10.123 3.85637 15.90755 s -4.33842 8.67685 -1.44614 13.49732 s 8.67685 6.26661 5.78457 10.605 s -5.78457 7.71275 -4.82047 10.605 s -25.5485 8.1948 -27.95873 3.85638 c 0 0 7.71275 -6.74866 0 -10.605 s -5.30252 -18.31779 -5.30252 -18.31779 s -13.49732 -55.43541 -13.01527 -59.77383 s -21.21007 -71.825 -21.21007 -71.825 s -31.81511 96.40942 -33.7433 100.74784 s 2.41024 14.94346 0 17.83574 s 0.9641 10.123 -2.41023 13.01527 s 5.78456 13.49732 0 17.3537 s -8.67685 15.90755 -8.1948 18.31779 s -24.10236 -0.482 -24.10236 -3.85638 s 0.482 -6.26661 -1.92818 -12.05118 s -3.85638 -9.64094 -1.92819 -11.56913 s 3.37433 -4.33842 1.44614 -11.08708 s 2.89228 -27.47668 1.44614 -31.33306 s -0.96409 -29.88692 -0.96409 -29.88692 s 4.82047 -38.08171 3.37433 -44.34833 s 0 -7.71275 0.482 -10.123 s 3.37433 -28.44078 5.30252 -32.29716 s 4.33842 -69.89682 15.42551 -73.27115 S 946.45623 438.44188 946.45623 438.44188 Z" stroke-linecap="round"/>
</g>
		<g transform="matrix(1 0 0 1 345.4921 254.5041)">
<path style="stroke: none; stroke-width: 1; stroke-dasharray: none; stroke-linecap: butt; stroke-dashoffset: 0; stroke-linejoin: miter; stroke-miterlimit: 4; is-custom-font: none; font-file-url: none; fill: rgb(47,46,65); fill-rule: nonzero; opacity: 1;" transform=" translate(-945.4921, -704.5042)" d="M 950.3126 696.81911 s 17.3537 -2.89228 18.31779 0 s 3.85638 25.5485 -2.89228 26.03054 s -18.31779 1.92819 -20.246 -2.41023 s -11.08708 -7.23071 -11.08708 -7.23071 s -13.49732 -3.85638 -13.49732 -8.1948 s 0.482 -11.08708 2.89228 -11.56913 s 12.05118 -5.78456 12.05118 -7.71275 S 950.3126 696.81911 950.3126 696.81911 Z" stroke-linecap="round"/>
</g>
		<g transform="matrix(1 0 0 1 232.8571 261.8252)">
<path style="stroke: none; stroke-width: 1; stroke-dasharray: none; stroke-linecap: butt; stroke-dashoffset: 0; stroke-linejoin: miter; stroke-miterlimit: 4; is-custom-font: none; font-file-url: none; fill: rgb(47,46,65); fill-rule: nonzero; opacity: 1;" transform=" translate(-832.8572, -711.8252)" d="M 841.852 704.53186 s 12.53322 -3.85637 15.42551 -1.44614 s 6.74866 28.92283 0 28.44078 s -24.5844 2.41024 -25.5485 -1.44614 s -13.97936 -4.82047 -13.97936 -4.82047 s -13.97937 -6.74866 -13.01527 -13.97937 s 2.41023 -9.64094 8.1948 -10.123 s 10.123 -7.2307 10.605 -7.71275 s 4.73217 -4.00568 5.25837 -0.07465 S 835.5854 705.978 841.852 704.53186 Z" stroke-linecap="round"/>
</g>
		<g transform="matrix(1 0 0 1 281.3799 -241.9766)">
<circle style="stroke: none; stroke-width: 1; stroke-dasharray: none; stroke-linecap: butt; stroke-dashoffset: 0; stroke-linejoin: miter; stroke-miterlimit: 4; is-custom-font: none; font-file-url: none; fill: rgb(160,97,106); fill-rule: nonzero; opacity: 1;" cx="0" cy="0" r="29.40487"/>
</g>
		<g transform="matrix(1 0 0 1 294.468 -216.1871)">
<path style="stroke: none; stroke-width: 1; stroke-dasharray: none; stroke-linecap: butt; stroke-dashoffset: 0; stroke-linejoin: miter; stroke-miterlimit: 4; is-custom-font: none; font-file-url: none; fill: rgb(160,97,106); fill-rule: nonzero; opacity: 1;" transform=" translate(-894.4681, -233.8129)" d="M 906.92837 214.772 s 1.92818 32.29716 9.15889 35.18944 s -36.63558 2.89228 -36.63558 2.89228 s -0.482 -20.246 -6.74866 -25.06645 S 906.92837 214.772 906.92837 214.772 Z" stroke-linecap="round"/>
</g>
		<g transform="matrix(1 0 0 1 307.8026 -108.007)">
<path style="stroke: none; stroke-width: 1; stroke-dasharray: none; stroke-linecap: butt; stroke-dashoffset: 0; stroke-linejoin: miter; stroke-miterlimit: 4; is-custom-font: none; font-file-url: none; fill: rgb(87,90,137); fill-rule: nonzero; opacity: 1;" transform=" translate(-907.8027, -341.9931)" d="M 918.4975 242.73077 s -29.88692 -11.08708 -40.492 6.26661 c 0 0 -33.74329 15.90756 -36.15353 25.5485 s 20.246 81.948 20.246 81.948 s 0 59.77384 -4.82047 66.04045 s -13.97937 13.01527 -7.71276 14.46141 s 104.60422 12.05118 104.12217 5.78457 s -6.74866 -11.56913 0 -15.42551 s 0.9641 -8.1948 5.30252 -20.728 s 14.94346 -116.17335 14.94346 -116.17335 s -7.23071 -13.01527 -8.67685 -14.46141 S 918.4975 242.73077 918.4975 242.73077 Z" stroke-linecap="round"/>
</g>
		<g transform="matrix(1 0 0 1 234.165 28.2)">
<path style="stroke: none; stroke-width: 1; stroke-dasharray: none; stroke-linecap: butt; stroke-dashoffset: 0; stroke-linejoin: miter; stroke-miterlimit: 4; is-custom-font: none; font-file-url: none; fill: rgb(160,97,106); fill-rule: nonzero; opacity: 1;" transform=" translate(-834.165, -478.2)" d="M 832.21107 453.86739 s -18.79984 42.42014 -2.41024 48.20471 s 15.42551 -44.83038 15.42551 -44.83038 Z" stroke-linecap="round"/>
</g>
		<g transform="matrix(1 0 0 1 287.1656 -248.896)">
<path style="stroke: none; stroke-width: 1; stroke-dasharray: none; stroke-linecap: butt; stroke-dashoffset: 0; stroke-linejoin: miter; stroke-miterlimit: 4; is-custom-font: none; font-file-url: none; fill: rgb(47,46,65); fill-rule: nonzero; opacity: 1;" transform=" translate(-887.1656, -201.1039)" d="M 895.48448 213.4921 c -1.70448 -3.41525 -4.256 -7.35518 -8.06724 -7.14722 c -1.92718 0.10516 -3.5891 1.30429 -5.30672 2.18455 s -3.91834 1.42594 -5.48888 0.3041 c -2.29721 -1.6409 -1.58495 -5.53291 -3.63974 -7.46878 c -2.24314 -2.11333 -6.75476 -0.93343 -8.20211 -3.65428 c -0.77281 -1.45281 -0.14869 -3.25538 -0.4857 -4.86607 a 17.52475 17.52475 0 0 1 -6.94729 -0.80718 c -2.17634 -0.88215 -4.06085 -2.9261 -4 -5.27363 a 6.03156 6.03156 0 0 1 2.15386 -4.14707 c 2.9633 -2.69446 7.24974 -3.21117 10.90637 -4.84531 c 2.90995 -1.30045 5.4402 -3.32718 8.3003 -4.7339 c 4.92243 -2.42107 10.60141 -2.89057 16.07107 -2.47259 c 8.2934 0.63376 16.68031 3.38605 22.69427 9.13187 s 9.19682 14.81058 6.60314 22.71344 c -1.46971 4.47815 -4.58437 8.24219 -6.32251 12.62314 a 44.18588 44.18588 0 0 0 -2.20294 9.25893 l -1.2203 7.4871 c 0.18992 -1.1652 -2.36856 -4.08784 -3.20764 -4.78328 c -1.8302 -1.51691 -4.49238 -1.00222 -6.19153 -2.40728 C 898.41764 222.51039 896.96324 216.45506 895.48448 213.4921 Z" stroke-linecap="round"/>
</g>
		<g transform="matrix(1 0 0 1 253.9425 -82.3391)">
<path style="stroke: none; stroke-width: 1; stroke-dasharray: none; stroke-linecap: butt; stroke-dashoffset: 0; stroke-linejoin: miter; stroke-miterlimit: 4; is-custom-font: none; font-file-url: none; fill: rgb(0,0,0); fill-rule: nonzero; opacity: 0.1;" transform=" translate(-853.9425, -367.6609)" d="M 852.93909 271.17155 l -7.71275 4.82047 s -12.53322 75.68139 -11.08708 86.28643 s -5.78457 70.37887 -3.37433 75.19934 s 3.37433 5.78456 3.37433 8.67685 s -6.74866 13.49731 -2.41024 15.4255 s 20.246 5.30252 20.246 0 s -2.89228 -12.53322 2.41023 -15.90755 s 9.1589 -25.06645 9.1589 -25.06645 s 2.41023 -22.17416 4.82047 -26.51259 s 5.78456 -20.246 5.78456 -26.99463 s 5.78457 -34.22535 2.41024 -48.20471 S 872.221 267.31517 852.93909 271.17155 Z" stroke-linecap="round"/>
</g>
		<g transform="matrix(1 0 0 1 250.5682 -83.7853)">
<path style="stroke: none; stroke-width: 1; stroke-dasharray: none; stroke-linecap: butt; stroke-dashoffset: 0; stroke-linejoin: miter; stroke-miterlimit: 4; is-custom-font: none; font-file-url: none; fill: rgb(87,90,137); fill-rule: nonzero; opacity: 1;" transform=" translate(-850.5682, -366.2147)" d="M 849.56476 269.72541 l -7.71275 4.82047 s -12.53322 75.68139 -11.08708 86.28642 s -5.78457 70.37888 -3.37433 75.19935 s 3.37433 5.78456 3.37433 8.67684 s -6.74866 13.49732 -2.41024 15.42551 s 20.246 5.30252 20.246 0 s -2.89228 -12.53322 2.41024 -15.90755 S 860.1698 419.16 860.1698 419.16 s 2.41024 -22.17417 4.82047 -26.51259 s 5.78457 -20.246 5.78457 -26.99464 s 5.78456 -34.22534 2.41023 -48.2047 S 868.84665 265.869 849.56476 269.72541 Z" stroke-linecap="round"/>
</g>
		<g transform="matrix(1 0 0 1 -113.0666 -139.7427)">
<rect style="stroke: none; stroke-width: 1; stroke-dasharray: none; stroke-linecap: butt; stroke-dashoffset: 0; stroke-linejoin: miter; stroke-miterlimit: 4; is-custom-font: none; font-file-url: none; fill: rgb(230,230,230); fill-rule: nonzero; opacity: 1;" x="-283.7857" y="-142.3755" rx="0" ry="0" width="567.5714" height="284.751"/>
</g>
		<g transform="matrix(1 0 0 1 -113.0666 -139.7427)">
<rect style="stroke: none; stroke-width: 1; stroke-dasharray: none; stroke-linecap: butt; stroke-dashoffset: 0; stroke-linejoin: miter; stroke-miterlimit: 4; is-custom-font: none; font-file-url: none; fill: rgb(255,255,255); fill-rule: nonzero; opacity: 1;" x="-257.72375" y="-119.2093" rx="0" ry="0" width="515.4475" height="238.4186"/>
</g>
		<g transform="matrix(1 0 0 1 -113.0663 -139.7427)">
<polygon style="stroke: none; stroke-width: 1; stroke-dasharray: none; stroke-linecap: butt; stroke-dashoffset: 0; stroke-linejoin: miter; stroke-miterlimit: 4; is-custom-font: none; font-file-url: none; fill: rgb(41,70,161); fill-rule: nonzero; opacity: 1;" points="-247.63,-99.8625 -248.995,-98.4975 -179.779,-29.2825 -158.061,-51.0005 -119.934,-12.8725 -73.119,-59.6875 6.515,19.9465 42.712,-16.2515 121.863,62.9005 166.265,18.4985 247.63,99.8625 248.995,98.4975 166.265,15.7685 121.863,60.1705 42.712,-18.9805 6.515,17.2165 -73.119,-62.4175 -119.934,-15.6025 -158.061,-53.7305 -179.779,-32.0115 -247.63,-99.8625 "/>
</g>
		<g transform="matrix(1 0 0 1 -182.8064 -199.3474)">
<circle style="stroke: none; stroke-width: 1; stroke-dasharray: none; stroke-linecap: butt; stroke-dashoffset: 0; stroke-linejoin: miter; stroke-miterlimit: 4; is-custom-font: none; font-file-url: none; fill: rgb(41,70,161); fill-rule: nonzero; opacity: 1;" cx="0" cy="0" r="11.58309"/>
</g>
		<g transform="matrix(1 0 0 1 -108.4816 -123.092)">
<circle style="stroke: none; stroke-width: 1; stroke-dasharray: none; stroke-linecap: butt; stroke-dashoffset: 0; stroke-linejoin: miter; stroke-miterlimit: 4; is-custom-font: none; font-file-url: none; fill: rgb(41,70,161); fill-rule: nonzero; opacity: 1;" cx="0" cy="0" r="11.58309"/>
</g>
		<g transform="matrix(1 0 0 1 52.7165 -123.092)">
<circle style="stroke: none; stroke-width: 1; stroke-dasharray: none; stroke-linecap: butt; stroke-dashoffset: 0; stroke-linejoin: miter; stroke-miterlimit: 4; is-custom-font: none; font-file-url: none; fill: rgb(41,70,161); fill-rule: nonzero; opacity: 1;" cx="0" cy="0" r="11.58309"/>
</g>
</g>
</g>
</svg>