<svg width="76" height="76" viewBox="0 0 76 76" fill="none" xmlns="http://www.w3.org/2000/svg">
<g clip-path="url(#clip0_0_6)">
<path opacity="0.335658" fill-rule="evenodd" clip-rule="evenodd" d="M38 76C58.9868 76 76 58.9868 76 38C76 17.0132 58.9868 0 38 0C17.0132 0 0 17.0132 0 38C0 58.9868 17.0132 76 38 76Z" fill="white"/>
<path fill-rule="evenodd" clip-rule="evenodd" d="M38 63C51.8071 63 63 51.8071 63 38C63 24.1929 51.8071 13 38 13C24.1929 13 13 24.1929 13 38C13 51.8071 24.1929 63 38 63Z" fill="white"/>
<path d="M45.3571 39.5625L33.5 46.1518C33.3631 46.2292 33.244 46.2381 33.1429 46.1786C33.0476 46.119 33 46.0119 33 45.8571V32.7143C33 32.5595 33.0476 32.4524 33.1429 32.3929C33.244 32.3333 33.3631 32.3423 33.5 32.4196L45.3571 39.0089C45.494 39.0863 45.5625 39.1786 45.5625 39.2857C45.5625 39.3929 45.494 39.4851 45.3571 39.5625Z" fill="#EC615B"/>
</g>
<defs>
<clipPath id="clip0_0_6">
<rect width="76" height="76" fill="white"/>
</clipPath>
</defs>
</svg>
